P2
24 7
255
0	0	0	0	0	0	0	0	0	0	0	0	0	0	0	0	0	0	0	0	0	0	0	0
0	255	255	255	255	0	0	192	192	192	192	0	0	160	160	160	160	0	0	255	255	255	255	0
0	255	0	0	0	0	0	192	0	0	0	0	0	160	0	0	0	0	0	255	0	0	255	0
0	255	255	255	0	0	0	192	192	192	0	0	0	160	160	160	0	0	0	255	255	255	255	0
0	255	0	0	0	0	0	192	0	0	0	0	0	160	0	0	0	0	0	160	0	0	0	0
0	255	0	0	0	0	0	192	192	192	192	0	0	160	160	160	160	0	0	255	0	0	0	0
0	0	0	0	0	0	0	0	0	0	0	0	0	0	0	0	0	0	0	0	0	0	0	0
